<svg xmlns="http://www.w3.org/2000/svg" width="3.6in" height="3.6in" viewBox="0 0 256 256"><path fill="#cdd5d8" d="M205.546 183.411l45.891 45.891a15.5 15.5 0 0 1 0 21.92 15.5 15.5 0 0 1-21.85-.07l-45.89-45.891a8.3 8.3 0 0 1 0-11.738l10.11-10.112a8.3 8.3 0 0 1 11.739 0z"/><path fill="#a1a9ad" d="M204.428 182.172l21.284 21.284-21.85 21.85-21.283-21.284a6.6 6.6 0 0 1 0-9.334l12.445-12.445a6.6 6.6 0 0 1 9.404-.07z"/><circle cx="119.3" cy="119.3" r="118.9" fill="#cdd5d8"/><circle cx="120.7" cy="120.7" r="102.5" fill="#a1a9ad"/><circle cx="119.3" cy="119.3" r="91.8" fill="#562a15"/><circle cx="127.6" cy="127.6" r="83.6" fill="#936238"/><path fill="#dfad76" d="M93 137.4c6.5-6.6 17.3-12 22.7-20.3S132.4 98 132.4 98l28.7-24c-17.9-16.6-50.6-11.6-73.7 11.6s-28.3 56.5-11.2 74.3c0 0 10.3-16 16.8-22.5zm56.1-36.1c-6.5 6.5-17.3 12-22.6 20.3s-16.8 19-16.8 19L81 164.7c17.9 16.6 50.6 11.5 73.8-11.6s28.3-56.5 11.1-74.3c0 0-10.3 16-16.8 22.5z"/></svg>