<svg xmlns="http://www.w3.org/2000/svg" width="86.4" height="86.4" viewBox="0 0 64 64"><path fill="#cdd5d8" d="M51.294 45.86l11.455 11.455a3.9 3.9 0 0 1 0 5.374 3.9 3.9 0 0 1-5.516 0L45.85 51.305a2.1 2.1 0 0 1 0-2.97l2.546-2.546a2.1 2.1 0 0 1 2.899.071z"/><path fill="#a1a9ad" d="M51.036 45.497l5.374 5.374-5.444 5.445-5.374-5.374a1.7 1.7 0 0 1 0-2.404l3.11-3.111a1.7 1.7 0 0 1 2.334.07z"/><circle cx="29.8" cy="29.8" r="29.7" fill="#cdd5d8"/><circle cx="30.1" cy="30.2" r="25.6" fill="#a1a9ad"/><circle cx="29.8" cy="29.8" r="22.9" fill="#562a15"/><circle cx="31.8" cy="31.9" r="20.9" fill="#936238"/><path fill="#dfad76" d="M23.2 34.3c1.6-1.6 4.3-3 5.7-5a32.5 32.5 0 0 1 4.1-4.8l7.2-6c-4.5-4.2-12.6-2.9-18.4 2.9S14.7 35.5 19 40a56.2 56.2 0 0 1 4.2-5.7zm14-9c-1.6 1.6-4.3 3-5.6 5.1a34.1 34.1 0 0 1-4.2 4.7l-7.2 6c4.5 4.2 12.6 2.9 18.4-2.9s7.1-14.1 2.8-18.5a48.2 48.2 0 0 1-4.2 5.6z"/></svg>